HIERARCHY
ROOT SimulationBone
{
	OFFSET 0.000000 0.000000 0.000000
	CHANNELS 6 Xposition Yposition Zposition Zrotation Yrotation Xrotation 
	JOINT Hips
	{
		OFFSET 0.000000 0.000000 0.000000
		CHANNELS 6 Xposition Yposition Zposition Zrotation Yrotation Xrotation 
		JOINT LeftUpLeg
		{
			OFFSET 0.103459 1.857842 10.548500
			CHANNELS 3 Zrotation Yrotation Xrotation
			JOINT LeftLeg
			{
				OFFSET 43.500008 -0.000042 -0.000011
				CHANNELS 3 Zrotation Yrotation Xrotation
				JOINT LeftFoot
				{
					OFFSET 42.372200 0.000000 0.000010
					CHANNELS 3 Zrotation Yrotation Xrotation
					JOINT LeftToe
					{
						OFFSET 17.300018 0.000008 -0.000006
						CHANNELS 3 Zrotation Yrotation Xrotation
						End Site
						{
							OFFSET 0.000000 0.000000 0.000000
						}
					}
				}
			}
		}
		JOINT RightUpLeg
		{
			OFFSET 0.103459 1.857820 -10.548510
			CHANNELS 3 Zrotation Yrotation Xrotation
			JOINT RightLeg
			{
				OFFSET 43.500038 -0.000004 -0.000004
				CHANNELS 3 Zrotation Yrotation Xrotation
				JOINT RightFoot
				{
					OFFSET 42.372261 -0.000019 0.000015
					CHANNELS 3 Zrotation Yrotation Xrotation
					JOINT RightToe
					{
						OFFSET 17.300003 -0.000001 0.000006
						CHANNELS 3 Zrotation Yrotation Xrotation
						End Site
						{
							OFFSET 0.000000 0.000000 0.000000
						}
					}
				}
			}
		}
		JOINT Spine
		{
			OFFSET 6.901967 -2.603730 -0.000004
			CHANNELS 3 Zrotation Yrotation Xrotation
			JOINT Spine1
			{
				OFFSET 12.588097 -0.000009 0.000008
				CHANNELS 3 Zrotation Yrotation Xrotation
				JOINT Spine2
				{
					OFFSET 12.343205 0.000003 -0.000002
					CHANNELS 3 Zrotation Yrotation Xrotation
					JOINT Neck
					{
						OFFSET 25.832899 -0.000006 0.000003
						CHANNELS 3 Zrotation Yrotation Xrotation
						JOINT Head
						{
							OFFSET 11.766611 0.000013 0.000001
							CHANNELS 3 Zrotation Yrotation Xrotation
							End Site
							{
								OFFSET 0.000000 0.000000 0.000000
							}
						}
					}
					JOINT LeftShoulder
					{
						OFFSET 19.745903 -1.480350 6.000102
						CHANNELS 3 Zrotation Yrotation Xrotation
						JOINT LeftArm
						{
							OFFSET 11.284125 -0.000002 -0.000024
							CHANNELS 3 Zrotation Yrotation Xrotation
							JOINT LeftForeArm
							{
								OFFSET 33.000050 0.000009 0.000033
								CHANNELS 3 Zrotation Yrotation Xrotation
								JOINT LeftHand
								{
									OFFSET 25.200012 0.000010 -0.000003
									CHANNELS 3 Zrotation Yrotation Xrotation
									End Site
									{
										OFFSET 0.000000 0.000000 0.000000
									}
								}
							}
						}
					}
					JOINT RightShoulder
					{
						OFFSET 19.746105 -1.480362 -6.000072
						CHANNELS 3 Zrotation Yrotation Xrotation
						JOINT RightArm
						{
							OFFSET 11.284140 -0.000003 -0.000004
							CHANNELS 3 Zrotation Yrotation Xrotation
							JOINT RightForeArm
							{
								OFFSET 33.000099 0.000013 0.000007
								CHANNELS 3 Zrotation Yrotation Xrotation
								JOINT RightHand
								{
									OFFSET 25.199776 0.000126 0.000428
									CHANNELS 3 Zrotation Yrotation Xrotation
									End Site
									{
										OFFSET 0.000000 0.000000 0.000000
									}
								}
							}
						}
					}
				}
			}
		}
	}
}
MOTION
Frames: 6
Frame Time: 0.016667
253.470666 0.000000 247.598579 0.000000 262.480623 0.000000 -2.115803 89.448036 -0.064412 92.642148 -0.859476 178.376372 157.334733 -2.535090 172.087695 -12.614430 -1.600926 -3.705351 64.896222 0.003827 -7.302009 21.454550 0.003075 -0.000002 -171.419225 1.485397 -174.171613 -17.458590 6.488716 0.817662 85.817754 -1.658421 -4.706136 21.454560 -0.003118 -0.000016 9.688405 -0.334069 0.718996 9.359692 -0.725221 1.408625 9.041673 -0.716550 1.412975 -11.684232 -10.411424 -11.130206 -9.181275 16.831237 -18.832963 172.279172 -76.917002 6.365398 -16.190778 55.538175 12.090990 -29.704768 -13.327133 1.116473 17.109803 -3.617067 -7.959121 -171.783710 73.703775 9.838914 -36.090900 -45.925949 -11.770485 -34.884063 14.680643 -1.338863 7.993197 5.051024 -0.064269 
253.448950 0.000000 249.136166 0.000000 262.007347 0.000000 -1.769806 89.061606 -0.087859 92.943354 -0.446398 178.709060 157.643976 -2.767769 172.131504 -10.970911 -2.227709 -3.064270 65.077051 -0.725055 -8.044764 21.454550 0.003089 0.000002 -169.720568 1.257882 -174.155472 -17.132883 6.415390 0.668996 86.058940 -1.486408 -4.380585 21.454564 -0.003115 -0.000014 9.605327 -0.255963 0.656510 9.194732 -0.563303 1.290604 8.876708 -0.555349 1.293966 -11.715955 -10.198632 -11.141291 -8.501267 17.250221 -18.786126 172.002410 -76.758224 6.652278 -16.597569 56.154258 11.546769 -27.622320 -12.921012 1.049253 17.558883 -4.205030 -6.284802 -172.787585 73.079382 8.805691 -35.834533 -45.831170 -12.012595 -34.313321 14.621330 -1.322988 8.027012 4.987652 0.596946 
253.437086 0.000000 250.671509 0.000000 261.567436 0.000000 -1.480819 88.815666 -0.130973 93.423025 -0.470361 179.208788 158.355149 -2.237788 171.791648 -10.175836 -2.369957 -2.735527 64.984017 -0.547172 -6.917528 21.454551 0.003094 0.000002 -167.771562 1.422100 -174.117737 -16.554768 6.466706 0.702836 86.056530 -1.488029 -4.239831 21.454562 -0.003110 -0.000015 9.565005 -0.264094 0.550099 9.114589 -0.570722 1.077689 8.796538 -0.564057 1.081103 -11.709745 -9.635725 -11.189702 -8.064677 17.473934 -18.662379 171.513289 -76.679701 7.153381 -17.193919 56.901648 11.157654 -25.922959 -12.766010 1.013936 18.152269 -5.719963 -4.345757 -173.109123 72.539282 8.472149 -35.759051 -45.956555 -11.974656 -33.665069 14.481053 -1.298595 7.949285 4.835473 0.828116 
253.433923 0.000000 252.204622 0.000000 261.160688 0.000000 -1.219430 88.638869 -0.181837 93.987872 -0.740270 179.762796 159.151114 -1.309165 171.120149 -10.359842 -2.096193 -2.501042 64.696118 0.144924 -4.613263 21.454551 0.003094 0.000000 -165.791400 1.807510 -173.965723 -16.038463 6.517932 0.762949 85.923096 -1.517681 -4.129552 21.454557 -0.003106 -0.000017 9.538324 -0.323943 0.429326 9.061497 -0.680538 0.831974 8.743413 -0.675359 0.836067 -11.628421 -8.837694 -11.260426 -7.847301 17.569561 -18.495096 170.944520 -76.650571 7.734245 -17.738591 57.758285 10.702041 -24.725535 -12.762803 0.995909 18.563481 -7.975127 -2.287509 -172.918018 72.104248 8.665854 -35.733519 -46.317033 -11.806368 -33.020211 14.337368 -1.274858 7.854916 4.566984 0.662078 
253.438311 0.000000 253.735520 0.000000 260.786845 0.000000 -0.955892 88.459869 -0.229506 94.550826 -1.060381 -179.738984 159.715682 -0.350804 170.154929 -11.655228 -1.480286 -2.164596 64.294509 0.963020 -1.826215 21.454551 0.003093 -0.000001 -163.998907 2.238802 -173.619502 -15.898601 6.447058 0.690826 85.772190 -1.430405 -3.895375 21.454555 -0.003104 -0.000018 9.496058 -0.401046 0.323695 8.977281 -0.826021 0.615309 8.659168 -0.822155 0.620297 -11.434730 -7.919390 -11.336933 -7.824370 17.604997 -18.315190 170.429106 -76.640981 8.260110 -17.990357 58.702544 9.962321 -24.151532 -12.811421 0.989368 18.479888 -10.761534 -0.224363 -172.348595 71.790497 9.249723 -35.626918 -46.927213 -11.657869 -32.459056 14.268072 -1.258815 7.840899 4.154275 0.131262 
253.449099 0.000000 255.264218 0.000000 260.445607 0.000000 -0.665374 88.227938 -0.268551 95.063475 -1.291678 -179.377067 159.864076 0.363135 169.020622 -14.028826 -0.603545 -1.666093 63.796588 1.584895 0.723984 21.454550 0.003094 -0.000001 -162.538514 2.592354 -173.072438 -16.347909 6.175192 0.396836 85.668878 -1.142343 -3.445496 21.454555 -0.003105 -0.000018 9.421698 -0.473792 0.255338 8.828845 -0.965705 0.473787 8.510709 -0.962698 0.479631 -11.121903 -6.968217 -11.407207 -7.958121 17.638986 -18.147030 170.154139 -76.634254 8.540740 -17.823211 59.696350 8.837449 -24.260726 -12.850413 0.993664 17.747159 -13.789280 1.668587 -171.523342 71.587394 10.097944 -35.312002 -47.777046 -11.621105 -32.067649 14.314784 -1.253794 7.966505 3.591671 -0.757159 
